<?xml version="1.0" encoding="utf-8" standalone="no"?>
<!DOCTYPE svg PUBLIC "-//W3C//DTD SVG 1.1//EN"
  "http://www.w3.org/Graphics/SVG/1.1/DTD/svg11.dtd">
<svg xmlns:xlink="http://www.w3.org/1999/xlink" width="685.484774pt" height="477.77375pt" viewBox="0 0 685.484774 477.77375" xmlns="http://www.w3.org/2000/svg" version="1.1">
 <metadata>
  <rdf:RDF xmlns:dc="http://purl.org/dc/elements/1.1/" xmlns:cc="http://creativecommons.org/ns#" xmlns:rdf="http://www.w3.org/1999/02/22-rdf-syntax-ns#">
   <cc:Work>
    <dc:type rdf:resource="http://purl.org/dc/dcmitype/StillImage"/>
    <dc:date>2025-02-17T17:28:08.456467</dc:date>
    <dc:format>image/svg+xml</dc:format>
    <dc:creator>
     <cc:Agent>
      <dc:title>Matplotlib v3.8.2, https://matplotlib.org/</dc:title>
     </cc:Agent>
    </dc:creator>
   </cc:Work>
  </rdf:RDF>
 </metadata>
 <defs>
  <style type="text/css">*{stroke-linejoin: round; stroke-linecap: butt}</style>
 </defs>
 <g id="figure_1">
  <g id="patch_1">
   <path d="M -0 477.77375 
L 685.484774 477.77375 
L 685.484774 0 
L -0 0 
z
" style="fill: #ffffff"/>
  </g>
  <g id="axes_1">
   <g id="patch_2">
    <path d="M 666.48 248.81375 
C 666.48 219.692494 660.743747 190.854405 649.599525 163.949872 
C 638.455303 137.045339 622.119838 112.597588 601.528 92.00575 
C 580.936162 71.413912 556.488411 55.078447 529.583878 43.934225 
C 502.679345 32.790003 473.841256 27.05375 444.72 27.05375 
C 415.598744 27.05375 386.760655 32.790003 359.856122 43.934225 
C 332.951589 55.078447 308.503838 71.413912 287.912 92.00575 
C 267.320162 112.597588 250.984697 137.045339 239.840475 163.949872 
C 228.696253 190.854405 222.96 219.692494 222.96 248.81375 
C 222.96 277.935006 228.696253 306.773095 239.840475 333.677628 
C 250.984697 360.582161 267.320162 385.029912 287.912 405.62175 
C 308.503838 426.213588 332.951589 442.549053 359.856122 453.693275 
C 386.760655 464.837497 415.598744 470.57375 444.72 470.57375 
C 473.841256 470.57375 502.679345 464.837497 529.583878 453.693275 
C 556.488411 442.549053 580.936162 426.213588 601.528 405.62175 
C 622.119838 385.029912 638.455303 360.582161 649.599525 333.677628 
C 660.743747 306.773095 666.48 277.935006 666.48 248.81375 
M 444.72 248.81375 
C 444.72 248.81375 444.72 248.81375 444.72 248.81375 
C 444.72 248.81375 444.72 248.81375 444.72 248.81375 
C 444.72 248.81375 444.72 248.81375 444.72 248.81375 
C 444.72 248.81375 444.72 248.81375 444.72 248.81375 
C 444.72 248.81375 444.72 248.81375 444.72 248.81375 
C 444.72 248.81375 444.72 248.81375 444.72 248.81375 
C 444.72 248.81375 444.72 248.81375 444.72 248.81375 
C 444.72 248.81375 444.72 248.81375 444.72 248.81375 
C 444.72 248.81375 444.72 248.81375 444.72 248.81375 
C 444.72 248.81375 444.72 248.81375 444.72 248.81375 
C 444.72 248.81375 444.72 248.81375 444.72 248.81375 
C 444.72 248.81375 444.72 248.81375 444.72 248.81375 
C 444.72 248.81375 444.72 248.81375 444.72 248.81375 
C 444.72 248.81375 444.72 248.81375 444.72 248.81375 
C 444.72 248.81375 444.72 248.81375 444.72 248.81375 
C 444.72 248.81375 444.72 248.81375 444.72 248.81375 
z
" style="fill: #ffffff"/>
   </g>
   <g id="patch_3">
    <path d="M 444.72 70.529933 
L 307.983811 327.758426 
L 598.329461 337.500214 
z
" clip-path="url(#pa8160c23fd)" style="fill: #1f77b4; opacity: 0.25"/>
   </g>
   <g id="patch_4">
    <path d="M 444.72 80.551091 
L 316.998265 322.553928 
L 593.529166 334.728762 
z
" clip-path="url(#pa8160c23fd)" style="fill: #ff7f0e; opacity: 0.25"/>
   </g>
   <g id="patch_5">
    <path d="M 444.72 89.773591 
L 335.89447 311.644199 
L 579.128279 326.414406 
z
" clip-path="url(#pa8160c23fd)" style="fill: #2ca02c; opacity: 0.25"/>
   </g>
   <g id="patch_6">
    <path d="M 444.72 105.412131 
L 354.273721 301.032933 
L 569.527687 320.871502 
z
" clip-path="url(#pa8160c23fd)" style="fill: #d62728; opacity: 0.25"/>
   </g>
   <g id="matplotlib.axis_1">
    <g id="xtick_1">
     <g id="line2d_1">
      <path d="M 444.72 248.81375 
L 444.72 27.05375 
" clip-path="url(#pa8160c23fd)" style="fill: none; stroke: #b0b0b0; stroke-width: 0.8; stroke-linecap: square"/>
     </g>
     <g id="text_1">
      <!-- Balanced Accuracy -->
      <g transform="translate(381.20625 16.318125) scale(0.12 -0.12)">
       <defs>
        <path id="DejaVuSans-Bold-42" d="M 2456 2859 
Q 2741 2859 2887 2984 
Q 3034 3109 3034 3353 
Q 3034 3594 2887 3720 
Q 2741 3847 2456 3847 
L 1791 3847 
L 1791 2859 
L 2456 2859 
z
M 2497 819 
Q 2859 819 3042 972 
Q 3225 1125 3225 1434 
Q 3225 1738 3044 1889 
Q 2863 2041 2497 2041 
L 1791 2041 
L 1791 819 
L 2497 819 
z
M 3616 2497 
Q 4003 2384 4215 2081 
Q 4428 1778 4428 1338 
Q 4428 663 3972 331 
Q 3516 0 2584 0 
L 588 0 
L 588 4666 
L 2394 4666 
Q 3366 4666 3802 4372 
Q 4238 4078 4238 3431 
Q 4238 3091 4078 2852 
Q 3919 2613 3616 2497 
z
" transform="scale(0.015625)"/>
        <path id="DejaVuSans-Bold-61" d="M 2106 1575 
Q 1756 1575 1579 1456 
Q 1403 1338 1403 1106 
Q 1403 894 1545 773 
Q 1688 653 1941 653 
Q 2256 653 2472 879 
Q 2688 1106 2688 1447 
L 2688 1575 
L 2106 1575 
z
M 3816 1997 
L 3816 0 
L 2688 0 
L 2688 519 
Q 2463 200 2181 54 
Q 1900 -91 1497 -91 
Q 953 -91 614 226 
Q 275 544 275 1050 
Q 275 1666 698 1953 
Q 1122 2241 2028 2241 
L 2688 2241 
L 2688 2328 
Q 2688 2594 2478 2717 
Q 2269 2841 1825 2841 
Q 1466 2841 1156 2769 
Q 847 2697 581 2553 
L 581 3406 
Q 941 3494 1303 3539 
Q 1666 3584 2028 3584 
Q 2975 3584 3395 3211 
Q 3816 2838 3816 1997 
z
" transform="scale(0.015625)"/>
        <path id="DejaVuSans-Bold-6c" d="M 538 4863 
L 1656 4863 
L 1656 0 
L 538 0 
L 538 4863 
z
" transform="scale(0.015625)"/>
        <path id="DejaVuSans-Bold-6e" d="M 4056 2131 
L 4056 0 
L 2931 0 
L 2931 347 
L 2931 1631 
Q 2931 2084 2911 2256 
Q 2891 2428 2841 2509 
Q 2775 2619 2662 2680 
Q 2550 2741 2406 2741 
Q 2056 2741 1856 2470 
Q 1656 2200 1656 1722 
L 1656 0 
L 538 0 
L 538 3500 
L 1656 3500 
L 1656 2988 
Q 1909 3294 2193 3439 
Q 2478 3584 2822 3584 
Q 3428 3584 3742 3212 
Q 4056 2841 4056 2131 
z
" transform="scale(0.015625)"/>
        <path id="DejaVuSans-Bold-63" d="M 3366 3391 
L 3366 2478 
Q 3138 2634 2908 2709 
Q 2678 2784 2431 2784 
Q 1963 2784 1702 2511 
Q 1441 2238 1441 1747 
Q 1441 1256 1702 982 
Q 1963 709 2431 709 
Q 2694 709 2930 787 
Q 3166 866 3366 1019 
L 3366 103 
Q 3103 6 2833 -42 
Q 2563 -91 2291 -91 
Q 1344 -91 809 395 
Q 275 881 275 1747 
Q 275 2613 809 3098 
Q 1344 3584 2291 3584 
Q 2566 3584 2833 3536 
Q 3100 3488 3366 3391 
z
" transform="scale(0.015625)"/>
        <path id="DejaVuSans-Bold-65" d="M 4031 1759 
L 4031 1441 
L 1416 1441 
Q 1456 1047 1700 850 
Q 1944 653 2381 653 
Q 2734 653 3104 758 
Q 3475 863 3866 1075 
L 3866 213 
Q 3469 63 3072 -14 
Q 2675 -91 2278 -91 
Q 1328 -91 801 392 
Q 275 875 275 1747 
Q 275 2603 792 3093 
Q 1309 3584 2216 3584 
Q 3041 3584 3536 3087 
Q 4031 2591 4031 1759 
z
M 2881 2131 
Q 2881 2450 2695 2645 
Q 2509 2841 2209 2841 
Q 1884 2841 1681 2658 
Q 1478 2475 1428 2131 
L 2881 2131 
z
" transform="scale(0.015625)"/>
        <path id="DejaVuSans-Bold-64" d="M 2919 2988 
L 2919 4863 
L 4044 4863 
L 4044 0 
L 2919 0 
L 2919 506 
Q 2688 197 2409 53 
Q 2131 -91 1766 -91 
Q 1119 -91 703 423 
Q 288 938 288 1747 
Q 288 2556 703 3070 
Q 1119 3584 1766 3584 
Q 2128 3584 2408 3439 
Q 2688 3294 2919 2988 
z
M 2181 722 
Q 2541 722 2730 984 
Q 2919 1247 2919 1747 
Q 2919 2247 2730 2509 
Q 2541 2772 2181 2772 
Q 1825 2772 1636 2509 
Q 1447 2247 1447 1747 
Q 1447 1247 1636 984 
Q 1825 722 2181 722 
z
" transform="scale(0.015625)"/>
        <path id="DejaVuSans-Bold-20" transform="scale(0.015625)"/>
        <path id="DejaVuSans-Bold-41" d="M 3419 850 
L 1538 850 
L 1241 0 
L 31 0 
L 1759 4666 
L 3194 4666 
L 4922 0 
L 3713 0 
L 3419 850 
z
M 1838 1716 
L 3116 1716 
L 2478 3572 
L 1838 1716 
z
" transform="scale(0.015625)"/>
        <path id="DejaVuSans-Bold-75" d="M 500 1363 
L 500 3500 
L 1625 3500 
L 1625 3150 
Q 1625 2866 1622 2436 
Q 1619 2006 1619 1863 
Q 1619 1441 1641 1255 
Q 1663 1069 1716 984 
Q 1784 875 1895 815 
Q 2006 756 2150 756 
Q 2500 756 2700 1025 
Q 2900 1294 2900 1772 
L 2900 3500 
L 4019 3500 
L 4019 0 
L 2900 0 
L 2900 506 
Q 2647 200 2364 54 
Q 2081 -91 1741 -91 
Q 1134 -91 817 281 
Q 500 653 500 1363 
z
" transform="scale(0.015625)"/>
        <path id="DejaVuSans-Bold-72" d="M 3138 2547 
Q 2991 2616 2845 2648 
Q 2700 2681 2553 2681 
Q 2122 2681 1889 2404 
Q 1656 2128 1656 1613 
L 1656 0 
L 538 0 
L 538 3500 
L 1656 3500 
L 1656 2925 
Q 1872 3269 2151 3426 
Q 2431 3584 2822 3584 
Q 2878 3584 2943 3579 
Q 3009 3575 3134 3559 
L 3138 2547 
z
" transform="scale(0.015625)"/>
        <path id="DejaVuSans-Bold-79" d="M 78 3500 
L 1197 3500 
L 2138 1125 
L 2938 3500 
L 4056 3500 
L 2584 -331 
Q 2363 -916 2067 -1148 
Q 1772 -1381 1288 -1381 
L 641 -1381 
L 641 -647 
L 991 -647 
Q 1275 -647 1404 -556 
Q 1534 -466 1606 -231 
L 1638 -134 
L 78 3500 
z
" transform="scale(0.015625)"/>
       </defs>
       <use xlink:href="#DejaVuSans-Bold-42"/>
       <use xlink:href="#DejaVuSans-Bold-61" x="76.220703"/>
       <use xlink:href="#DejaVuSans-Bold-6c" x="143.701172"/>
       <use xlink:href="#DejaVuSans-Bold-61" x="177.978516"/>
       <use xlink:href="#DejaVuSans-Bold-6e" x="245.458984"/>
       <use xlink:href="#DejaVuSans-Bold-63" x="316.650391"/>
       <use xlink:href="#DejaVuSans-Bold-65" x="375.927734"/>
       <use xlink:href="#DejaVuSans-Bold-64" x="443.75"/>
       <use xlink:href="#DejaVuSans-Bold-20" x="515.332031"/>
       <use xlink:href="#DejaVuSans-Bold-41" x="550.146484"/>
       <use xlink:href="#DejaVuSans-Bold-63" x="627.539062"/>
       <use xlink:href="#DejaVuSans-Bold-63" x="686.816406"/>
       <use xlink:href="#DejaVuSans-Bold-75" x="746.09375"/>
       <use xlink:href="#DejaVuSans-Bold-72" x="817.285156"/>
       <use xlink:href="#DejaVuSans-Bold-61" x="866.601562"/>
       <use xlink:href="#DejaVuSans-Bold-63" x="934.082031"/>
       <use xlink:href="#DejaVuSans-Bold-79" x="993.359375"/>
      </g>
     </g>
    </g>
    <g id="xtick_2">
     <g id="line2d_2">
      <path d="M 444.72 248.81375 
L 252.670206 359.69375 
" clip-path="url(#pa8160c23fd)" style="fill: none; stroke: #b0b0b0; stroke-width: 0.8; stroke-linecap: square"/>
     </g>
     <g id="text_2">
      <!-- MCC -->
      <g transform="translate(225.768038 370.005) scale(0.12 -0.12)">
       <defs>
        <path id="DejaVuSans-Bold-4d" d="M 588 4666 
L 2119 4666 
L 3181 2169 
L 4250 4666 
L 5778 4666 
L 5778 0 
L 4641 0 
L 4641 3413 
L 3566 897 
L 2803 897 
L 1728 3413 
L 1728 0 
L 588 0 
L 588 4666 
z
" transform="scale(0.015625)"/>
        <path id="DejaVuSans-Bold-43" d="M 4288 256 
Q 3956 84 3597 -3 
Q 3238 -91 2847 -91 
Q 1681 -91 1000 561 
Q 319 1213 319 2328 
Q 319 3447 1000 4098 
Q 1681 4750 2847 4750 
Q 3238 4750 3597 4662 
Q 3956 4575 4288 4403 
L 4288 3438 
Q 3953 3666 3628 3772 
Q 3303 3878 2944 3878 
Q 2300 3878 1931 3465 
Q 1563 3053 1563 2328 
Q 1563 1606 1931 1193 
Q 2300 781 2944 781 
Q 3303 781 3628 887 
Q 3953 994 4288 1222 
L 4288 256 
z
" transform="scale(0.015625)"/>
       </defs>
       <use xlink:href="#DejaVuSans-Bold-4d"/>
       <use xlink:href="#DejaVuSans-Bold-43" x="99.511719"/>
       <use xlink:href="#DejaVuSans-Bold-43" x="172.900391"/>
      </g>
     </g>
    </g>
    <g id="xtick_3">
     <g id="line2d_3">
      <path d="M 444.72 248.81375 
L 636.769794 359.69375 
" clip-path="url(#pa8160c23fd)" style="fill: none; stroke: #b0b0b0; stroke-width: 0.8; stroke-linecap: square"/>
     </g>
     <g id="text_3">
      <!-- F1 Score -->
      <g transform="translate(619.503524 370.005) scale(0.12 -0.12)">
       <defs>
        <path id="DejaVuSans-Bold-46" d="M 588 4666 
L 3834 4666 
L 3834 3756 
L 1791 3756 
L 1791 2888 
L 3713 2888 
L 3713 1978 
L 1791 1978 
L 1791 0 
L 588 0 
L 588 4666 
z
" transform="scale(0.015625)"/>
        <path id="DejaVuSans-Bold-31" d="M 750 831 
L 1813 831 
L 1813 3847 
L 722 3622 
L 722 4441 
L 1806 4666 
L 2950 4666 
L 2950 831 
L 4013 831 
L 4013 0 
L 750 0 
L 750 831 
z
" transform="scale(0.015625)"/>
        <path id="DejaVuSans-Bold-53" d="M 3834 4519 
L 3834 3531 
Q 3450 3703 3084 3790 
Q 2719 3878 2394 3878 
Q 1963 3878 1756 3759 
Q 1550 3641 1550 3391 
Q 1550 3203 1689 3098 
Q 1828 2994 2194 2919 
L 2706 2816 
Q 3484 2659 3812 2340 
Q 4141 2022 4141 1434 
Q 4141 663 3683 286 
Q 3225 -91 2284 -91 
Q 1841 -91 1394 -6 
Q 947 78 500 244 
L 500 1259 
Q 947 1022 1364 901 
Q 1781 781 2169 781 
Q 2563 781 2772 912 
Q 2981 1044 2981 1288 
Q 2981 1506 2839 1625 
Q 2697 1744 2272 1838 
L 1806 1941 
Q 1106 2091 782 2419 
Q 459 2747 459 3303 
Q 459 4000 909 4375 
Q 1359 4750 2203 4750 
Q 2588 4750 2994 4692 
Q 3400 4634 3834 4519 
z
" transform="scale(0.015625)"/>
        <path id="DejaVuSans-Bold-6f" d="M 2203 2784 
Q 1831 2784 1636 2517 
Q 1441 2250 1441 1747 
Q 1441 1244 1636 976 
Q 1831 709 2203 709 
Q 2569 709 2762 976 
Q 2956 1244 2956 1747 
Q 2956 2250 2762 2517 
Q 2569 2784 2203 2784 
z
M 2203 3584 
Q 3106 3584 3614 3096 
Q 4122 2609 4122 1747 
Q 4122 884 3614 396 
Q 3106 -91 2203 -91 
Q 1297 -91 786 396 
Q 275 884 275 1747 
Q 275 2609 786 3096 
Q 1297 3584 2203 3584 
z
" transform="scale(0.015625)"/>
       </defs>
       <use xlink:href="#DejaVuSans-Bold-46"/>
       <use xlink:href="#DejaVuSans-Bold-31" x="68.310547"/>
       <use xlink:href="#DejaVuSans-Bold-20" x="137.890625"/>
       <use xlink:href="#DejaVuSans-Bold-53" x="172.705078"/>
       <use xlink:href="#DejaVuSans-Bold-63" x="244.726562"/>
       <use xlink:href="#DejaVuSans-Bold-6f" x="304.003906"/>
       <use xlink:href="#DejaVuSans-Bold-72" x="372.705078"/>
       <use xlink:href="#DejaVuSans-Bold-65" x="422.021484"/>
      </g>
     </g>
    </g>
   </g>
   <g id="matplotlib.axis_2">
    <g id="ytick_1">
     <g id="line2d_4">
      <path d="M 487.954651 248.81375 
C 487.954651 243.136228 486.836303 237.513912 484.663609 232.268565 
C 482.490916 227.023219 479.30613 222.25685 475.291515 218.242235 
C 471.2769 214.22762 466.510531 211.042834 461.265185 208.870141 
C 456.019838 206.697447 450.397522 205.579099 444.72 205.579099 
C 439.042478 205.579099 433.420162 206.697447 428.174815 208.870141 
C 422.929469 211.042834 418.1631 214.22762 414.148485 218.242235 
C 410.13387 222.25685 406.949084 227.023219 404.776391 232.268565 
C 402.603697 237.513912 401.485349 243.136228 401.485349 248.81375 
C 401.485349 254.491272 402.603697 260.113588 404.776391 265.358935 
C 406.949084 270.604281 410.13387 275.37065 414.148485 279.385265 
C 418.1631 283.39988 422.929469 286.584666 428.174815 288.757359 
C 433.420162 290.930053 439.042478 292.048401 444.72 292.048401 
C 450.397522 292.048401 456.019838 290.930053 461.265185 288.757359 
C 466.510531 286.584666 471.2769 283.39988 475.291515 279.385265 
C 479.30613 275.37065 482.490916 270.604281 484.663609 265.358935 
C 486.836303 260.113588 487.954651 254.491272 487.954651 248.81375 
" clip-path="url(#pa8160c23fd)" style="fill: none; stroke: #b0b0b0; stroke-width: 0.8; stroke-linecap: square"/>
     </g>
    </g>
    <g id="ytick_2">
     <g id="line2d_5">
      <path d="M 531.189302 248.81375 
C 531.189302 237.458705 528.952606 226.214074 524.607219 215.723381 
C 520.261831 205.232687 513.892259 195.699949 505.86303 187.67072 
C 497.833801 179.641491 488.301063 173.271919 477.810369 168.926531 
C 467.319676 164.581144 456.075045 162.344448 444.72 162.344448 
C 433.364955 162.344448 422.120324 164.581144 411.629631 168.926531 
C 401.138937 173.271919 391.606199 179.641491 383.57697 187.67072 
C 375.547741 195.699949 369.178169 205.232687 364.832781 215.723381 
C 360.487394 226.214074 358.250698 237.458705 358.250698 248.81375 
C 358.250698 260.168795 360.487394 271.413426 364.832781 281.904119 
C 369.178169 292.394813 375.547741 301.927551 383.57697 309.95678 
C 391.606199 317.986009 401.138937 324.355581 411.629631 328.700969 
C 422.120324 333.046356 433.364955 335.283052 444.72 335.283052 
C 456.075045 335.283052 467.319676 333.046356 477.810369 328.700969 
C 488.301063 324.355581 497.833801 317.986009 505.86303 309.95678 
C 513.892259 301.927551 520.261831 292.394813 524.607219 281.904119 
C 528.952606 271.413426 531.189302 260.168795 531.189302 248.81375 
" clip-path="url(#pa8160c23fd)" style="fill: none; stroke: #b0b0b0; stroke-width: 0.8; stroke-linecap: square"/>
     </g>
    </g>
    <g id="ytick_3">
     <g id="line2d_6">
      <path d="M 574.423953 248.81375 
C 574.423953 231.781183 571.068909 214.914236 564.550828 199.178196 
C 558.032747 183.442156 548.478389 169.143049 536.434545 157.099205 
C 524.390701 145.055361 510.091594 135.501003 494.355554 128.982922 
C 478.619514 122.464841 461.752567 119.109797 444.72 119.109797 
C 427.687433 119.109797 410.820486 122.464841 395.084446 128.982922 
C 379.348406 135.501003 365.049299 145.055361 353.005455 157.099205 
C 340.961611 169.143049 331.407253 183.442156 324.889172 199.178196 
C 318.371091 214.914236 315.016047 231.781183 315.016047 248.81375 
C 315.016047 265.846317 318.371091 282.713264 324.889172 298.449304 
C 331.407253 314.185344 340.961611 328.484451 353.005455 340.528295 
C 365.049299 352.572139 379.348406 362.126497 395.084446 368.644578 
C 410.820486 375.162659 427.687433 378.517703 444.72 378.517703 
C 461.752567 378.517703 478.619514 375.162659 494.355554 368.644578 
C 510.091594 362.126497 524.390701 352.572139 536.434545 340.528295 
C 548.478389 328.484451 558.032747 314.185344 564.550828 298.449304 
C 571.068909 282.713264 574.423953 265.846317 574.423953 248.81375 
" clip-path="url(#pa8160c23fd)" style="fill: none; stroke: #b0b0b0; stroke-width: 0.8; stroke-linecap: square"/>
     </g>
    </g>
    <g id="ytick_4">
     <g id="line2d_7">
      <path d="M 617.658604 248.81375 
C 617.658604 226.103661 613.185212 203.614398 604.494437 182.633011 
C 595.803662 161.651624 583.064518 142.586148 567.00606 126.52769 
C 550.947602 110.469232 531.882126 97.730088 510.900739 89.039313 
C 489.919352 80.348538 467.430089 75.875146 444.72 75.875146 
C 422.009911 75.875146 399.520648 80.348538 378.539261 89.039313 
C 357.557874 97.730088 338.492398 110.469232 322.43394 126.52769 
C 306.375482 142.586148 293.636338 161.651624 284.945563 182.633011 
C 276.254788 203.614398 271.781396 226.103661 271.781396 248.81375 
C 271.781396 271.523839 276.254788 294.013102 284.945563 314.994489 
C 293.636338 335.975876 306.375482 355.041352 322.43394 371.09981 
C 338.492398 387.158268 357.557874 399.897412 378.539261 408.588187 
C 399.520648 417.278962 422.009911 421.752354 444.72 421.752354 
C 467.430089 421.752354 489.919352 417.278962 510.900739 408.588187 
C 531.882126 399.897412 550.947602 387.158268 567.00606 371.09981 
C 583.064518 355.041352 595.803662 335.975876 604.494437 314.994489 
C 613.185212 294.013102 617.658604 271.523839 617.658604 248.81375 
" clip-path="url(#pa8160c23fd)" style="fill: none; stroke: #b0b0b0; stroke-width: 0.8; stroke-linecap: square"/>
     </g>
    </g>
    <g id="ytick_5">
     <g id="line2d_8">
      <path d="M 660.893256 248.81375 
C 660.893256 220.426138 655.301515 192.31456 644.438046 166.087827 
C 633.574578 139.861093 617.650648 116.029248 597.577575 95.956175 
C 577.504502 75.883102 553.672657 59.959172 527.445923 49.095704 
C 501.21919 38.232235 473.107612 32.640494 444.72 32.640494 
C 416.332388 32.640494 388.22081 38.232235 361.994077 49.095704 
C 335.767343 59.959172 311.935498 75.883102 291.862425 95.956175 
C 271.789352 116.029248 255.865422 139.861093 245.001954 166.087827 
C 234.138485 192.31456 228.546744 220.426138 228.546744 248.81375 
C 228.546744 277.201362 234.138485 305.31294 245.001954 331.539673 
C 255.865422 357.766407 271.789352 381.598252 291.862425 401.671325 
C 311.935498 421.744398 335.767343 437.668328 361.994077 448.531796 
C 388.22081 459.395265 416.332388 464.987006 444.72 464.987006 
C 473.107612 464.987006 501.21919 459.395265 527.445923 448.531796 
C 553.672657 437.668328 577.504502 421.744398 597.577575 401.671325 
C 617.650648 381.598252 633.574578 357.766407 644.438046 331.539673 
C 655.301515 305.31294 660.893256 277.201362 660.893256 248.81375 
" clip-path="url(#pa8160c23fd)" style="fill: none; stroke: #b0b0b0; stroke-width: 0.8; stroke-linecap: square"/>
     </g>
    </g>
   </g>
   <g id="line2d_9">
    <path d="M 444.72 32.640494 
L 257.508469 356.900378 
L 631.931531 356.900378 
L 444.72 32.640494 
" clip-path="url(#pa8160c23fd)" style="fill: none; stroke: #ff0000; stroke-width: 2; stroke-linecap: square"/>
   </g>
   <g id="line2d_10">
    <path d="M 444.72 32.640494 
L 257.508469 356.900378 
L 631.931531 356.900378 
L 444.72 32.640494 
" clip-path="url(#pa8160c23fd)" style="fill: none; stroke: #ff0000; stroke-width: 2; stroke-linecap: square"/>
   </g>
   <g id="line2d_11">
    <path d="M 444.72 32.640494 
L 257.508469 356.900378 
L 631.931531 356.900378 
L 444.72 32.640494 
" clip-path="url(#pa8160c23fd)" style="fill: none; stroke: #ff0000; stroke-width: 2; stroke-linecap: square"/>
   </g>
   <g id="line2d_12">
    <path d="M 444.72 70.529933 
L 307.983811 327.758426 
L 598.329461 337.500214 
L 444.72 70.529933 
" clip-path="url(#pa8160c23fd)" style="fill: none; stroke-dasharray: 3.7,1.6; stroke-dashoffset: 0; stroke: #1f77b4"/>
   </g>
   <g id="line2d_13">
    <path d="M 444.72 80.551091 
L 316.998265 322.553928 
L 593.529166 334.728762 
L 444.72 80.551091 
" clip-path="url(#pa8160c23fd)" style="fill: none; stroke-dasharray: 3.7,1.6; stroke-dashoffset: 0; stroke: #ff7f0e"/>
   </g>
   <g id="line2d_14">
    <path d="M 444.72 89.773591 
L 335.89447 311.644199 
L 579.128279 326.414406 
L 444.72 89.773591 
" clip-path="url(#pa8160c23fd)" style="fill: none; stroke-dasharray: 3.7,1.6; stroke-dashoffset: 0; stroke: #2ca02c"/>
   </g>
   <g id="line2d_15">
    <path d="M 444.72 105.412131 
L 354.273721 301.032933 
L 569.527687 320.871502 
L 444.72 105.412131 
" clip-path="url(#pa8160c23fd)" style="fill: none; stroke-dasharray: 3.7,1.6; stroke-dashoffset: 0; stroke: #d62728"/>
   </g>
   <g id="patch_7">
    <path d="M 666.48 248.81375 
C 666.48 219.692494 660.743747 190.854405 649.599525 163.949872 
C 638.455303 137.045339 622.119838 112.597588 601.528 92.00575 
C 580.936162 71.413912 556.488411 55.078447 529.583878 43.934225 
C 502.679345 32.790003 473.841256 27.05375 444.72 27.05375 
C 415.598744 27.05375 386.760655 32.790003 359.856122 43.934225 
C 332.951589 55.078447 308.503838 71.413912 287.912 92.00575 
C 267.320162 112.597588 250.984697 137.045339 239.840475 163.949872 
C 228.696253 190.854405 222.96 219.692494 222.96 248.81375 
C 222.96 277.935006 228.696253 306.773095 239.840475 333.677628 
C 250.984697 360.582161 267.320162 385.029912 287.912 405.62175 
C 308.503838 426.213588 332.951589 442.549053 359.856122 453.693275 
C 386.760655 464.837497 415.598744 470.57375 444.72 470.57375 
C 473.841256 470.57375 502.679345 464.837497 529.583878 453.693275 
C 556.488411 442.549053 580.936162 426.213588 601.528 405.62175 
C 622.119838 385.029912 638.455303 360.582161 649.599525 333.677628 
C 660.743747 306.773095 666.48 277.935006 666.48 248.81375 
" style="fill: none; stroke: #000000; stroke-width: 0.8; stroke-linejoin: miter; stroke-linecap: square"/>
   </g>
   <g id="text_4">
    <!-- 1.0 -->
    <g transform="translate(436.748672 32.640494) scale(0.09 -0.09)">
     <defs>
      <path id="DejaVuSans-Bold-2e" d="M 653 1209 
L 1778 1209 
L 1778 0 
L 653 0 
L 653 1209 
z
" transform="scale(0.015625)"/>
      <path id="DejaVuSans-Bold-30" d="M 2944 2338 
Q 2944 3213 2780 3570 
Q 2616 3928 2228 3928 
Q 1841 3928 1675 3570 
Q 1509 3213 1509 2338 
Q 1509 1453 1675 1090 
Q 1841 728 2228 728 
Q 2613 728 2778 1090 
Q 2944 1453 2944 2338 
z
M 4147 2328 
Q 4147 1169 3647 539 
Q 3147 -91 2228 -91 
Q 1306 -91 806 539 
Q 306 1169 306 2328 
Q 306 3491 806 4120 
Q 1306 4750 2228 4750 
Q 3147 4750 3647 4120 
Q 4147 3491 4147 2328 
z
" transform="scale(0.015625)"/>
     </defs>
     <use xlink:href="#DejaVuSans-Bold-31"/>
     <use xlink:href="#DejaVuSans-Bold-2e" x="69.580078"/>
     <use xlink:href="#DejaVuSans-Bold-30" x="107.568359"/>
    </g>
   </g>
   <g id="text_5">
    <!-- 0.8 -->
    <g transform="translate(436.748672 75.875146) scale(0.09 -0.09)">
     <defs>
      <path id="DejaVuSans-Bold-38" d="M 2228 2088 
Q 1891 2088 1709 1903 
Q 1528 1719 1528 1375 
Q 1528 1031 1709 848 
Q 1891 666 2228 666 
Q 2563 666 2741 848 
Q 2919 1031 2919 1375 
Q 2919 1722 2741 1905 
Q 2563 2088 2228 2088 
z
M 1350 2484 
Q 925 2613 709 2878 
Q 494 3144 494 3541 
Q 494 4131 934 4440 
Q 1375 4750 2228 4750 
Q 3075 4750 3515 4442 
Q 3956 4134 3956 3541 
Q 3956 3144 3739 2878 
Q 3522 2613 3097 2484 
Q 3572 2353 3814 2058 
Q 4056 1763 4056 1313 
Q 4056 619 3595 264 
Q 3134 -91 2228 -91 
Q 1319 -91 855 264 
Q 391 619 391 1313 
Q 391 1763 633 2058 
Q 875 2353 1350 2484 
z
M 1631 3419 
Q 1631 3141 1786 2991 
Q 1941 2841 2228 2841 
Q 2509 2841 2662 2991 
Q 2816 3141 2816 3419 
Q 2816 3697 2662 3845 
Q 2509 3994 2228 3994 
Q 1941 3994 1786 3844 
Q 1631 3694 1631 3419 
z
" transform="scale(0.015625)"/>
     </defs>
     <use xlink:href="#DejaVuSans-Bold-30"/>
     <use xlink:href="#DejaVuSans-Bold-2e" x="69.580078"/>
     <use xlink:href="#DejaVuSans-Bold-38" x="107.568359"/>
    </g>
   </g>
   <g id="text_6">
    <!-- 0.7 -->
    <g transform="translate(436.748672 97.492471) scale(0.09 -0.09)">
     <defs>
      <path id="DejaVuSans-Bold-37" d="M 428 4666 
L 3944 4666 
L 3944 3988 
L 2125 0 
L 953 0 
L 2675 3781 
L 428 3781 
L 428 4666 
z
" transform="scale(0.015625)"/>
     </defs>
     <use xlink:href="#DejaVuSans-Bold-30"/>
     <use xlink:href="#DejaVuSans-Bold-2e" x="69.580078"/>
     <use xlink:href="#DejaVuSans-Bold-37" x="107.568359"/>
    </g>
   </g>
   <g id="text_7">
    <!-- 0.6 -->
    <g transform="translate(436.748672 119.109797) scale(0.09 -0.09)">
     <defs>
      <path id="DejaVuSans-Bold-36" d="M 2316 2303 
Q 2000 2303 1842 2098 
Q 1684 1894 1684 1484 
Q 1684 1075 1842 870 
Q 2000 666 2316 666 
Q 2634 666 2792 870 
Q 2950 1075 2950 1484 
Q 2950 1894 2792 2098 
Q 2634 2303 2316 2303 
z
M 3803 4544 
L 3803 3681 
Q 3506 3822 3243 3889 
Q 2981 3956 2731 3956 
Q 2194 3956 1894 3657 
Q 1594 3359 1544 2772 
Q 1750 2925 1990 3001 
Q 2231 3078 2516 3078 
Q 3231 3078 3670 2659 
Q 4109 2241 4109 1563 
Q 4109 813 3618 361 
Q 3128 -91 2303 -91 
Q 1394 -91 895 523 
Q 397 1138 397 2266 
Q 397 3422 980 4083 
Q 1563 4744 2578 4744 
Q 2900 4744 3203 4694 
Q 3506 4644 3803 4544 
z
" transform="scale(0.015625)"/>
     </defs>
     <use xlink:href="#DejaVuSans-Bold-30"/>
     <use xlink:href="#DejaVuSans-Bold-2e" x="69.580078"/>
     <use xlink:href="#DejaVuSans-Bold-36" x="107.568359"/>
    </g>
   </g>
   <g id="text_8">
    <!-- 1.0 -->
    <g transform="translate(249.537141 356.900378) scale(0.09 -0.09)">
     <use xlink:href="#DejaVuSans-Bold-31"/>
     <use xlink:href="#DejaVuSans-Bold-2e" x="69.580078"/>
     <use xlink:href="#DejaVuSans-Bold-30" x="107.568359"/>
    </g>
   </g>
   <g id="text_9">
    <!-- 0.8 -->
    <g transform="translate(286.979447 335.283052) scale(0.09 -0.09)">
     <use xlink:href="#DejaVuSans-Bold-30"/>
     <use xlink:href="#DejaVuSans-Bold-2e" x="69.580078"/>
     <use xlink:href="#DejaVuSans-Bold-38" x="107.568359"/>
    </g>
   </g>
   <g id="text_10">
    <!-- 0.7 -->
    <g transform="translate(305.7006 324.474389) scale(0.09 -0.09)">
     <use xlink:href="#DejaVuSans-Bold-30"/>
     <use xlink:href="#DejaVuSans-Bold-2e" x="69.580078"/>
     <use xlink:href="#DejaVuSans-Bold-37" x="107.568359"/>
    </g>
   </g>
   <g id="text_11">
    <!-- 0.6 -->
    <g transform="translate(324.421753 313.665727) scale(0.09 -0.09)">
     <use xlink:href="#DejaVuSans-Bold-30"/>
     <use xlink:href="#DejaVuSans-Bold-2e" x="69.580078"/>
     <use xlink:href="#DejaVuSans-Bold-36" x="107.568359"/>
    </g>
   </g>
   <g id="text_12">
    <!-- 1.0 -->
    <g transform="translate(623.960203 356.900378) scale(0.09 -0.09)">
     <use xlink:href="#DejaVuSans-Bold-31"/>
     <use xlink:href="#DejaVuSans-Bold-2e" x="69.580078"/>
     <use xlink:href="#DejaVuSans-Bold-30" x="107.568359"/>
    </g>
   </g>
   <g id="text_13">
    <!-- 0.8 -->
    <g transform="translate(586.517897 335.283052) scale(0.09 -0.09)">
     <use xlink:href="#DejaVuSans-Bold-30"/>
     <use xlink:href="#DejaVuSans-Bold-2e" x="69.580078"/>
     <use xlink:href="#DejaVuSans-Bold-38" x="107.568359"/>
    </g>
   </g>
   <g id="text_14">
    <!-- 0.7 -->
    <g transform="translate(567.796744 324.474389) scale(0.09 -0.09)">
     <use xlink:href="#DejaVuSans-Bold-30"/>
     <use xlink:href="#DejaVuSans-Bold-2e" x="69.580078"/>
     <use xlink:href="#DejaVuSans-Bold-37" x="107.568359"/>
    </g>
   </g>
   <g id="text_15">
    <!-- 0.6 -->
    <g transform="translate(549.07559 313.665727) scale(0.09 -0.09)">
     <use xlink:href="#DejaVuSans-Bold-30"/>
     <use xlink:href="#DejaVuSans-Bold-2e" x="69.580078"/>
     <use xlink:href="#DejaVuSans-Bold-36" x="107.568359"/>
    </g>
   </g>
   <g id="legend_1">
    <g id="patch_8">
     <path d="M 9.6 312.261875 
L 189.26625 312.261875 
Q 191.66625 312.261875 191.66625 309.861875 
L 191.66625 187.765625 
Q 191.66625 185.365625 189.26625 185.365625 
L 9.6 185.365625 
Q 7.2 185.365625 7.2 187.765625 
L 7.2 309.861875 
Q 7.2 312.261875 9.6 312.261875 
z
" style="fill: #ffffff; opacity: 0.8; stroke: #cccccc; stroke-linejoin: miter"/>
    </g>
    <g id="line2d_16">
     <path d="M 12 195.08375 
L 24 195.08375 
L 36 195.08375 
" style="fill: none; stroke: #ff0000; stroke-width: 2; stroke-linecap: square"/>
    </g>
    <g id="text_16">
     <!-- DecisionTreeClassifier -->
     <g transform="translate(45.6 199.28375) scale(0.12 -0.12)">
      <defs>
       <path id="DejaVuSans-44" d="M 1259 4147 
L 1259 519 
L 2022 519 
Q 2988 519 3436 956 
Q 3884 1394 3884 2338 
Q 3884 3275 3436 3711 
Q 2988 4147 2022 4147 
L 1259 4147 
z
M 628 4666 
L 1925 4666 
Q 3281 4666 3915 4102 
Q 4550 3538 4550 2338 
Q 4550 1131 3912 565 
Q 3275 0 1925 0 
L 628 0 
L 628 4666 
z
" transform="scale(0.015625)"/>
       <path id="DejaVuSans-65" d="M 3597 1894 
L 3597 1613 
L 953 1613 
Q 991 1019 1311 708 
Q 1631 397 2203 397 
Q 2534 397 2845 478 
Q 3156 559 3463 722 
L 3463 178 
Q 3153 47 2828 -22 
Q 2503 -91 2169 -91 
Q 1331 -91 842 396 
Q 353 884 353 1716 
Q 353 2575 817 3079 
Q 1281 3584 2069 3584 
Q 2775 3584 3186 3129 
Q 3597 2675 3597 1894 
z
M 3022 2063 
Q 3016 2534 2758 2815 
Q 2500 3097 2075 3097 
Q 1594 3097 1305 2825 
Q 1016 2553 972 2059 
L 3022 2063 
z
" transform="scale(0.015625)"/>
       <path id="DejaVuSans-63" d="M 3122 3366 
L 3122 2828 
Q 2878 2963 2633 3030 
Q 2388 3097 2138 3097 
Q 1578 3097 1268 2742 
Q 959 2388 959 1747 
Q 959 1106 1268 751 
Q 1578 397 2138 397 
Q 2388 397 2633 464 
Q 2878 531 3122 666 
L 3122 134 
Q 2881 22 2623 -34 
Q 2366 -91 2075 -91 
Q 1284 -91 818 406 
Q 353 903 353 1747 
Q 353 2603 823 3093 
Q 1294 3584 2113 3584 
Q 2378 3584 2631 3529 
Q 2884 3475 3122 3366 
z
" transform="scale(0.015625)"/>
       <path id="DejaVuSans-69" d="M 603 3500 
L 1178 3500 
L 1178 0 
L 603 0 
L 603 3500 
z
M 603 4863 
L 1178 4863 
L 1178 4134 
L 603 4134 
L 603 4863 
z
" transform="scale(0.015625)"/>
       <path id="DejaVuSans-73" d="M 2834 3397 
L 2834 2853 
Q 2591 2978 2328 3040 
Q 2066 3103 1784 3103 
Q 1356 3103 1142 2972 
Q 928 2841 928 2578 
Q 928 2378 1081 2264 
Q 1234 2150 1697 2047 
L 1894 2003 
Q 2506 1872 2764 1633 
Q 3022 1394 3022 966 
Q 3022 478 2636 193 
Q 2250 -91 1575 -91 
Q 1294 -91 989 -36 
Q 684 19 347 128 
L 347 722 
Q 666 556 975 473 
Q 1284 391 1588 391 
Q 1994 391 2212 530 
Q 2431 669 2431 922 
Q 2431 1156 2273 1281 
Q 2116 1406 1581 1522 
L 1381 1569 
Q 847 1681 609 1914 
Q 372 2147 372 2553 
Q 372 3047 722 3315 
Q 1072 3584 1716 3584 
Q 2034 3584 2315 3537 
Q 2597 3491 2834 3397 
z
" transform="scale(0.015625)"/>
       <path id="DejaVuSans-6f" d="M 1959 3097 
Q 1497 3097 1228 2736 
Q 959 2375 959 1747 
Q 959 1119 1226 758 
Q 1494 397 1959 397 
Q 2419 397 2687 759 
Q 2956 1122 2956 1747 
Q 2956 2369 2687 2733 
Q 2419 3097 1959 3097 
z
M 1959 3584 
Q 2709 3584 3137 3096 
Q 3566 2609 3566 1747 
Q 3566 888 3137 398 
Q 2709 -91 1959 -91 
Q 1206 -91 779 398 
Q 353 888 353 1747 
Q 353 2609 779 3096 
Q 1206 3584 1959 3584 
z
" transform="scale(0.015625)"/>
       <path id="DejaVuSans-6e" d="M 3513 2113 
L 3513 0 
L 2938 0 
L 2938 2094 
Q 2938 2591 2744 2837 
Q 2550 3084 2163 3084 
Q 1697 3084 1428 2787 
Q 1159 2491 1159 1978 
L 1159 0 
L 581 0 
L 581 3500 
L 1159 3500 
L 1159 2956 
Q 1366 3272 1645 3428 
Q 1925 3584 2291 3584 
Q 2894 3584 3203 3211 
Q 3513 2838 3513 2113 
z
" transform="scale(0.015625)"/>
       <path id="DejaVuSans-54" d="M -19 4666 
L 3928 4666 
L 3928 4134 
L 2272 4134 
L 2272 0 
L 1638 0 
L 1638 4134 
L -19 4134 
L -19 4666 
z
" transform="scale(0.015625)"/>
       <path id="DejaVuSans-72" d="M 2631 2963 
Q 2534 3019 2420 3045 
Q 2306 3072 2169 3072 
Q 1681 3072 1420 2755 
Q 1159 2438 1159 1844 
L 1159 0 
L 581 0 
L 581 3500 
L 1159 3500 
L 1159 2956 
Q 1341 3275 1631 3429 
Q 1922 3584 2338 3584 
Q 2397 3584 2469 3576 
Q 2541 3569 2628 3553 
L 2631 2963 
z
" transform="scale(0.015625)"/>
       <path id="DejaVuSans-43" d="M 4122 4306 
L 4122 3641 
Q 3803 3938 3442 4084 
Q 3081 4231 2675 4231 
Q 1875 4231 1450 3742 
Q 1025 3253 1025 2328 
Q 1025 1406 1450 917 
Q 1875 428 2675 428 
Q 3081 428 3442 575 
Q 3803 722 4122 1019 
L 4122 359 
Q 3791 134 3420 21 
Q 3050 -91 2638 -91 
Q 1578 -91 968 557 
Q 359 1206 359 2328 
Q 359 3453 968 4101 
Q 1578 4750 2638 4750 
Q 3056 4750 3426 4639 
Q 3797 4528 4122 4306 
z
" transform="scale(0.015625)"/>
       <path id="DejaVuSans-6c" d="M 603 4863 
L 1178 4863 
L 1178 0 
L 603 0 
L 603 4863 
z
" transform="scale(0.015625)"/>
       <path id="DejaVuSans-61" d="M 2194 1759 
Q 1497 1759 1228 1600 
Q 959 1441 959 1056 
Q 959 750 1161 570 
Q 1363 391 1709 391 
Q 2188 391 2477 730 
Q 2766 1069 2766 1631 
L 2766 1759 
L 2194 1759 
z
M 3341 1997 
L 3341 0 
L 2766 0 
L 2766 531 
Q 2569 213 2275 61 
Q 1981 -91 1556 -91 
Q 1019 -91 701 211 
Q 384 513 384 1019 
Q 384 1609 779 1909 
Q 1175 2209 1959 2209 
L 2766 2209 
L 2766 2266 
Q 2766 2663 2505 2880 
Q 2244 3097 1772 3097 
Q 1472 3097 1187 3025 
Q 903 2953 641 2809 
L 641 3341 
Q 956 3463 1253 3523 
Q 1550 3584 1831 3584 
Q 2591 3584 2966 3190 
Q 3341 2797 3341 1997 
z
" transform="scale(0.015625)"/>
       <path id="DejaVuSans-66" d="M 2375 4863 
L 2375 4384 
L 1825 4384 
Q 1516 4384 1395 4259 
Q 1275 4134 1275 3809 
L 1275 3500 
L 2222 3500 
L 2222 3053 
L 1275 3053 
L 1275 0 
L 697 0 
L 697 3053 
L 147 3053 
L 147 3500 
L 697 3500 
L 697 3744 
Q 697 4328 969 4595 
Q 1241 4863 1831 4863 
L 2375 4863 
z
" transform="scale(0.015625)"/>
      </defs>
      <use xlink:href="#DejaVuSans-44"/>
      <use xlink:href="#DejaVuSans-65" x="77.001953"/>
      <use xlink:href="#DejaVuSans-63" x="138.525391"/>
      <use xlink:href="#DejaVuSans-69" x="193.505859"/>
      <use xlink:href="#DejaVuSans-73" x="221.289062"/>
      <use xlink:href="#DejaVuSans-69" x="273.388672"/>
      <use xlink:href="#DejaVuSans-6f" x="301.171875"/>
      <use xlink:href="#DejaVuSans-6e" x="362.353516"/>
      <use xlink:href="#DejaVuSans-54" x="425.732422"/>
      <use xlink:href="#DejaVuSans-72" x="472.066406"/>
      <use xlink:href="#DejaVuSans-65" x="510.929688"/>
      <use xlink:href="#DejaVuSans-65" x="572.453125"/>
      <use xlink:href="#DejaVuSans-43" x="633.976562"/>
      <use xlink:href="#DejaVuSans-6c" x="703.800781"/>
      <use xlink:href="#DejaVuSans-61" x="731.583984"/>
      <use xlink:href="#DejaVuSans-73" x="792.863281"/>
      <use xlink:href="#DejaVuSans-73" x="844.962891"/>
      <use xlink:href="#DejaVuSans-69" x="897.0625"/>
      <use xlink:href="#DejaVuSans-66" x="924.845703"/>
      <use xlink:href="#DejaVuSans-69" x="960.050781"/>
      <use xlink:href="#DejaVuSans-65" x="987.833984"/>
      <use xlink:href="#DejaVuSans-72" x="1049.357422"/>
     </g>
    </g>
    <g id="line2d_17">
     <path d="M 12 212.6975 
L 24 212.6975 
L 36 212.6975 
" style="fill: none; stroke: #ff0000; stroke-width: 2; stroke-linecap: square"/>
    </g>
    <g id="text_17">
     <!-- RandomForestClassifier -->
     <g transform="translate(45.6 216.8975) scale(0.12 -0.12)">
      <defs>
       <path id="DejaVuSans-52" d="M 2841 2188 
Q 3044 2119 3236 1894 
Q 3428 1669 3622 1275 
L 4263 0 
L 3584 0 
L 2988 1197 
Q 2756 1666 2539 1819 
Q 2322 1972 1947 1972 
L 1259 1972 
L 1259 0 
L 628 0 
L 628 4666 
L 2053 4666 
Q 2853 4666 3247 4331 
Q 3641 3997 3641 3322 
Q 3641 2881 3436 2590 
Q 3231 2300 2841 2188 
z
M 1259 4147 
L 1259 2491 
L 2053 2491 
Q 2509 2491 2742 2702 
Q 2975 2913 2975 3322 
Q 2975 3731 2742 3939 
Q 2509 4147 2053 4147 
L 1259 4147 
z
" transform="scale(0.015625)"/>
       <path id="DejaVuSans-64" d="M 2906 2969 
L 2906 4863 
L 3481 4863 
L 3481 0 
L 2906 0 
L 2906 525 
Q 2725 213 2448 61 
Q 2172 -91 1784 -91 
Q 1150 -91 751 415 
Q 353 922 353 1747 
Q 353 2572 751 3078 
Q 1150 3584 1784 3584 
Q 2172 3584 2448 3432 
Q 2725 3281 2906 2969 
z
M 947 1747 
Q 947 1113 1208 752 
Q 1469 391 1925 391 
Q 2381 391 2643 752 
Q 2906 1113 2906 1747 
Q 2906 2381 2643 2742 
Q 2381 3103 1925 3103 
Q 1469 3103 1208 2742 
Q 947 2381 947 1747 
z
" transform="scale(0.015625)"/>
       <path id="DejaVuSans-6d" d="M 3328 2828 
Q 3544 3216 3844 3400 
Q 4144 3584 4550 3584 
Q 5097 3584 5394 3201 
Q 5691 2819 5691 2113 
L 5691 0 
L 5113 0 
L 5113 2094 
Q 5113 2597 4934 2840 
Q 4756 3084 4391 3084 
Q 3944 3084 3684 2787 
Q 3425 2491 3425 1978 
L 3425 0 
L 2847 0 
L 2847 2094 
Q 2847 2600 2669 2842 
Q 2491 3084 2119 3084 
Q 1678 3084 1418 2786 
Q 1159 2488 1159 1978 
L 1159 0 
L 581 0 
L 581 3500 
L 1159 3500 
L 1159 2956 
Q 1356 3278 1631 3431 
Q 1906 3584 2284 3584 
Q 2666 3584 2933 3390 
Q 3200 3197 3328 2828 
z
" transform="scale(0.015625)"/>
       <path id="DejaVuSans-46" d="M 628 4666 
L 3309 4666 
L 3309 4134 
L 1259 4134 
L 1259 2759 
L 3109 2759 
L 3109 2228 
L 1259 2228 
L 1259 0 
L 628 0 
L 628 4666 
z
" transform="scale(0.015625)"/>
       <path id="DejaVuSans-74" d="M 1172 4494 
L 1172 3500 
L 2356 3500 
L 2356 3053 
L 1172 3053 
L 1172 1153 
Q 1172 725 1289 603 
Q 1406 481 1766 481 
L 2356 481 
L 2356 0 
L 1766 0 
Q 1100 0 847 248 
Q 594 497 594 1153 
L 594 3053 
L 172 3053 
L 172 3500 
L 594 3500 
L 594 4494 
L 1172 4494 
z
" transform="scale(0.015625)"/>
      </defs>
      <use xlink:href="#DejaVuSans-52"/>
      <use xlink:href="#DejaVuSans-61" x="67.232422"/>
      <use xlink:href="#DejaVuSans-6e" x="128.511719"/>
      <use xlink:href="#DejaVuSans-64" x="191.890625"/>
      <use xlink:href="#DejaVuSans-6f" x="255.367188"/>
      <use xlink:href="#DejaVuSans-6d" x="316.548828"/>
      <use xlink:href="#DejaVuSans-46" x="413.960938"/>
      <use xlink:href="#DejaVuSans-6f" x="467.855469"/>
      <use xlink:href="#DejaVuSans-72" x="529.037109"/>
      <use xlink:href="#DejaVuSans-65" x="567.900391"/>
      <use xlink:href="#DejaVuSans-73" x="629.423828"/>
      <use xlink:href="#DejaVuSans-74" x="681.523438"/>
      <use xlink:href="#DejaVuSans-43" x="720.732422"/>
      <use xlink:href="#DejaVuSans-6c" x="790.556641"/>
      <use xlink:href="#DejaVuSans-61" x="818.339844"/>
      <use xlink:href="#DejaVuSans-73" x="879.619141"/>
      <use xlink:href="#DejaVuSans-73" x="931.71875"/>
      <use xlink:href="#DejaVuSans-69" x="983.818359"/>
      <use xlink:href="#DejaVuSans-66" x="1011.601562"/>
      <use xlink:href="#DejaVuSans-69" x="1046.806641"/>
      <use xlink:href="#DejaVuSans-65" x="1074.589844"/>
      <use xlink:href="#DejaVuSans-72" x="1136.113281"/>
     </g>
    </g>
    <g id="line2d_18">
     <path d="M 12 230.31125 
L 24 230.31125 
L 36 230.31125 
" style="fill: none; stroke: #ff0000; stroke-width: 2; stroke-linecap: square"/>
    </g>
    <g id="text_18">
     <!-- XGBClassifier -->
     <g transform="translate(45.6 234.51125) scale(0.12 -0.12)">
      <defs>
       <path id="DejaVuSans-58" d="M 403 4666 
L 1081 4666 
L 2241 2931 
L 3406 4666 
L 4084 4666 
L 2584 2425 
L 4184 0 
L 3506 0 
L 2194 1984 
L 872 0 
L 191 0 
L 1856 2491 
L 403 4666 
z
" transform="scale(0.015625)"/>
       <path id="DejaVuSans-47" d="M 3809 666 
L 3809 1919 
L 2778 1919 
L 2778 2438 
L 4434 2438 
L 4434 434 
Q 4069 175 3628 42 
Q 3188 -91 2688 -91 
Q 1594 -91 976 548 
Q 359 1188 359 2328 
Q 359 3472 976 4111 
Q 1594 4750 2688 4750 
Q 3144 4750 3555 4637 
Q 3966 4525 4313 4306 
L 4313 3634 
Q 3963 3931 3569 4081 
Q 3175 4231 2741 4231 
Q 1884 4231 1454 3753 
Q 1025 3275 1025 2328 
Q 1025 1384 1454 906 
Q 1884 428 2741 428 
Q 3075 428 3337 486 
Q 3600 544 3809 666 
z
" transform="scale(0.015625)"/>
       <path id="DejaVuSans-42" d="M 1259 2228 
L 1259 519 
L 2272 519 
Q 2781 519 3026 730 
Q 3272 941 3272 1375 
Q 3272 1813 3026 2020 
Q 2781 2228 2272 2228 
L 1259 2228 
z
M 1259 4147 
L 1259 2741 
L 2194 2741 
Q 2656 2741 2882 2914 
Q 3109 3088 3109 3444 
Q 3109 3797 2882 3972 
Q 2656 4147 2194 4147 
L 1259 4147 
z
M 628 4666 
L 2241 4666 
Q 2963 4666 3353 4366 
Q 3744 4066 3744 3513 
Q 3744 3084 3544 2831 
Q 3344 2578 2956 2516 
Q 3422 2416 3680 2098 
Q 3938 1781 3938 1306 
Q 3938 681 3513 340 
Q 3088 0 2303 0 
L 628 0 
L 628 4666 
z
" transform="scale(0.015625)"/>
      </defs>
      <use xlink:href="#DejaVuSans-58"/>
      <use xlink:href="#DejaVuSans-47" x="68.505859"/>
      <use xlink:href="#DejaVuSans-42" x="145.996094"/>
      <use xlink:href="#DejaVuSans-43" x="212.849609"/>
      <use xlink:href="#DejaVuSans-6c" x="282.673828"/>
      <use xlink:href="#DejaVuSans-61" x="310.457031"/>
      <use xlink:href="#DejaVuSans-73" x="371.736328"/>
      <use xlink:href="#DejaVuSans-73" x="423.835938"/>
      <use xlink:href="#DejaVuSans-69" x="475.935547"/>
      <use xlink:href="#DejaVuSans-66" x="503.71875"/>
      <use xlink:href="#DejaVuSans-69" x="538.923828"/>
      <use xlink:href="#DejaVuSans-65" x="566.707031"/>
      <use xlink:href="#DejaVuSans-72" x="628.230469"/>
     </g>
    </g>
    <g id="line2d_19">
     <path d="M 12 247.925 
L 24 247.925 
L 36 247.925 
" style="fill: none; stroke-dasharray: 3.7,1.6; stroke-dashoffset: 0; stroke: #1f77b4"/>
    </g>
    <g id="text_19">
     <!-- SVC -->
     <g transform="translate(45.6 252.125) scale(0.12 -0.12)">
      <defs>
       <path id="DejaVuSans-53" d="M 3425 4513 
L 3425 3897 
Q 3066 4069 2747 4153 
Q 2428 4238 2131 4238 
Q 1616 4238 1336 4038 
Q 1056 3838 1056 3469 
Q 1056 3159 1242 3001 
Q 1428 2844 1947 2747 
L 2328 2669 
Q 3034 2534 3370 2195 
Q 3706 1856 3706 1288 
Q 3706 609 3251 259 
Q 2797 -91 1919 -91 
Q 1588 -91 1214 -16 
Q 841 59 441 206 
L 441 856 
Q 825 641 1194 531 
Q 1563 422 1919 422 
Q 2459 422 2753 634 
Q 3047 847 3047 1241 
Q 3047 1584 2836 1778 
Q 2625 1972 2144 2069 
L 1759 2144 
Q 1053 2284 737 2584 
Q 422 2884 422 3419 
Q 422 4038 858 4394 
Q 1294 4750 2059 4750 
Q 2388 4750 2728 4690 
Q 3069 4631 3425 4513 
z
" transform="scale(0.015625)"/>
       <path id="DejaVuSans-56" d="M 1831 0 
L 50 4666 
L 709 4666 
L 2188 738 
L 3669 4666 
L 4325 4666 
L 2547 0 
L 1831 0 
z
" transform="scale(0.015625)"/>
      </defs>
      <use xlink:href="#DejaVuSans-53"/>
      <use xlink:href="#DejaVuSans-56" x="63.476562"/>
      <use xlink:href="#DejaVuSans-43" x="131.884766"/>
     </g>
    </g>
    <g id="line2d_20">
     <path d="M 12 265.53875 
L 24 265.53875 
L 36 265.53875 
" style="fill: none; stroke-dasharray: 3.7,1.6; stroke-dashoffset: 0; stroke: #ff7f0e"/>
    </g>
    <g id="text_20">
     <!-- KNeighborsClassifier -->
     <g transform="translate(45.6 269.73875) scale(0.12 -0.12)">
      <defs>
       <path id="DejaVuSans-4b" d="M 628 4666 
L 1259 4666 
L 1259 2694 
L 3353 4666 
L 4166 4666 
L 1850 2491 
L 4331 0 
L 3500 0 
L 1259 2247 
L 1259 0 
L 628 0 
L 628 4666 
z
" transform="scale(0.015625)"/>
       <path id="DejaVuSans-4e" d="M 628 4666 
L 1478 4666 
L 3547 763 
L 3547 4666 
L 4159 4666 
L 4159 0 
L 3309 0 
L 1241 3903 
L 1241 0 
L 628 0 
L 628 4666 
z
" transform="scale(0.015625)"/>
       <path id="DejaVuSans-67" d="M 2906 1791 
Q 2906 2416 2648 2759 
Q 2391 3103 1925 3103 
Q 1463 3103 1205 2759 
Q 947 2416 947 1791 
Q 947 1169 1205 825 
Q 1463 481 1925 481 
Q 2391 481 2648 825 
Q 2906 1169 2906 1791 
z
M 3481 434 
Q 3481 -459 3084 -895 
Q 2688 -1331 1869 -1331 
Q 1566 -1331 1297 -1286 
Q 1028 -1241 775 -1147 
L 775 -588 
Q 1028 -725 1275 -790 
Q 1522 -856 1778 -856 
Q 2344 -856 2625 -561 
Q 2906 -266 2906 331 
L 2906 616 
Q 2728 306 2450 153 
Q 2172 0 1784 0 
Q 1141 0 747 490 
Q 353 981 353 1791 
Q 353 2603 747 3093 
Q 1141 3584 1784 3584 
Q 2172 3584 2450 3431 
Q 2728 3278 2906 2969 
L 2906 3500 
L 3481 3500 
L 3481 434 
z
" transform="scale(0.015625)"/>
       <path id="DejaVuSans-68" d="M 3513 2113 
L 3513 0 
L 2938 0 
L 2938 2094 
Q 2938 2591 2744 2837 
Q 2550 3084 2163 3084 
Q 1697 3084 1428 2787 
Q 1159 2491 1159 1978 
L 1159 0 
L 581 0 
L 581 4863 
L 1159 4863 
L 1159 2956 
Q 1366 3272 1645 3428 
Q 1925 3584 2291 3584 
Q 2894 3584 3203 3211 
Q 3513 2838 3513 2113 
z
" transform="scale(0.015625)"/>
       <path id="DejaVuSans-62" d="M 3116 1747 
Q 3116 2381 2855 2742 
Q 2594 3103 2138 3103 
Q 1681 3103 1420 2742 
Q 1159 2381 1159 1747 
Q 1159 1113 1420 752 
Q 1681 391 2138 391 
Q 2594 391 2855 752 
Q 3116 1113 3116 1747 
z
M 1159 2969 
Q 1341 3281 1617 3432 
Q 1894 3584 2278 3584 
Q 2916 3584 3314 3078 
Q 3713 2572 3713 1747 
Q 3713 922 3314 415 
Q 2916 -91 2278 -91 
Q 1894 -91 1617 61 
Q 1341 213 1159 525 
L 1159 0 
L 581 0 
L 581 4863 
L 1159 4863 
L 1159 2969 
z
" transform="scale(0.015625)"/>
      </defs>
      <use xlink:href="#DejaVuSans-4b"/>
      <use xlink:href="#DejaVuSans-4e" x="65.576172"/>
      <use xlink:href="#DejaVuSans-65" x="140.380859"/>
      <use xlink:href="#DejaVuSans-69" x="201.904297"/>
      <use xlink:href="#DejaVuSans-67" x="229.6875"/>
      <use xlink:href="#DejaVuSans-68" x="293.164062"/>
      <use xlink:href="#DejaVuSans-62" x="356.542969"/>
      <use xlink:href="#DejaVuSans-6f" x="420.019531"/>
      <use xlink:href="#DejaVuSans-72" x="481.201172"/>
      <use xlink:href="#DejaVuSans-73" x="522.314453"/>
      <use xlink:href="#DejaVuSans-43" x="574.414062"/>
      <use xlink:href="#DejaVuSans-6c" x="644.238281"/>
      <use xlink:href="#DejaVuSans-61" x="672.021484"/>
      <use xlink:href="#DejaVuSans-73" x="733.300781"/>
      <use xlink:href="#DejaVuSans-73" x="785.400391"/>
      <use xlink:href="#DejaVuSans-69" x="837.5"/>
      <use xlink:href="#DejaVuSans-66" x="865.283203"/>
      <use xlink:href="#DejaVuSans-69" x="900.488281"/>
      <use xlink:href="#DejaVuSans-65" x="928.271484"/>
      <use xlink:href="#DejaVuSans-72" x="989.794922"/>
     </g>
    </g>
    <g id="line2d_21">
     <path d="M 12 283.1525 
L 24 283.1525 
L 36 283.1525 
" style="fill: none; stroke-dasharray: 3.7,1.6; stroke-dashoffset: 0; stroke: #2ca02c"/>
    </g>
    <g id="text_21">
     <!-- LogisticRegression -->
     <g transform="translate(45.6 287.3525) scale(0.12 -0.12)">
      <defs>
       <path id="DejaVuSans-4c" d="M 628 4666 
L 1259 4666 
L 1259 531 
L 3531 531 
L 3531 0 
L 628 0 
L 628 4666 
z
" transform="scale(0.015625)"/>
      </defs>
      <use xlink:href="#DejaVuSans-4c"/>
      <use xlink:href="#DejaVuSans-6f" x="53.962891"/>
      <use xlink:href="#DejaVuSans-67" x="115.144531"/>
      <use xlink:href="#DejaVuSans-69" x="178.621094"/>
      <use xlink:href="#DejaVuSans-73" x="206.404297"/>
      <use xlink:href="#DejaVuSans-74" x="258.503906"/>
      <use xlink:href="#DejaVuSans-69" x="297.712891"/>
      <use xlink:href="#DejaVuSans-63" x="325.496094"/>
      <use xlink:href="#DejaVuSans-52" x="380.476562"/>
      <use xlink:href="#DejaVuSans-65" x="445.458984"/>
      <use xlink:href="#DejaVuSans-67" x="506.982422"/>
      <use xlink:href="#DejaVuSans-72" x="570.458984"/>
      <use xlink:href="#DejaVuSans-65" x="609.322266"/>
      <use xlink:href="#DejaVuSans-73" x="670.845703"/>
      <use xlink:href="#DejaVuSans-73" x="722.945312"/>
      <use xlink:href="#DejaVuSans-69" x="775.044922"/>
      <use xlink:href="#DejaVuSans-6f" x="802.828125"/>
      <use xlink:href="#DejaVuSans-6e" x="864.009766"/>
     </g>
    </g>
    <g id="line2d_22">
     <path d="M 12 300.76625 
L 24 300.76625 
L 36 300.76625 
" style="fill: none; stroke-dasharray: 3.7,1.6; stroke-dashoffset: 0; stroke: #d62728"/>
    </g>
    <g id="text_22">
     <!-- GaussianNB -->
     <g transform="translate(45.6 304.96625) scale(0.12 -0.12)">
      <defs>
       <path id="DejaVuSans-75" d="M 544 1381 
L 544 3500 
L 1119 3500 
L 1119 1403 
Q 1119 906 1312 657 
Q 1506 409 1894 409 
Q 2359 409 2629 706 
Q 2900 1003 2900 1516 
L 2900 3500 
L 3475 3500 
L 3475 0 
L 2900 0 
L 2900 538 
Q 2691 219 2414 64 
Q 2138 -91 1772 -91 
Q 1169 -91 856 284 
Q 544 659 544 1381 
z
M 1991 3584 
L 1991 3584 
z
" transform="scale(0.015625)"/>
      </defs>
      <use xlink:href="#DejaVuSans-47"/>
      <use xlink:href="#DejaVuSans-61" x="77.490234"/>
      <use xlink:href="#DejaVuSans-75" x="138.769531"/>
      <use xlink:href="#DejaVuSans-73" x="202.148438"/>
      <use xlink:href="#DejaVuSans-73" x="254.248047"/>
      <use xlink:href="#DejaVuSans-69" x="306.347656"/>
      <use xlink:href="#DejaVuSans-61" x="334.130859"/>
      <use xlink:href="#DejaVuSans-6e" x="395.410156"/>
      <use xlink:href="#DejaVuSans-4e" x="458.789062"/>
      <use xlink:href="#DejaVuSans-42" x="533.59375"/>
     </g>
    </g>
   </g>
  </g>
 </g>
 <defs>
  <clipPath id="pa8160c23fd">
   <path d="M 666.48 248.81375 
C 666.48 219.692494 660.743747 190.854405 649.599525 163.949872 
C 638.455303 137.045339 622.119838 112.597588 601.528 92.00575 
C 580.936162 71.413912 556.488411 55.078447 529.583878 43.934225 
C 502.679345 32.790003 473.841256 27.05375 444.72 27.05375 
C 415.598744 27.05375 386.760655 32.790003 359.856122 43.934225 
C 332.951589 55.078447 308.503838 71.413912 287.912 92.00575 
C 267.320162 112.597588 250.984697 137.045339 239.840475 163.949872 
C 228.696253 190.854405 222.96 219.692494 222.96 248.81375 
C 222.96 277.935006 228.696253 306.773095 239.840475 333.677628 
C 250.984697 360.582161 267.320162 385.029912 287.912 405.62175 
C 308.503838 426.213588 332.951589 442.549053 359.856122 453.693275 
C 386.760655 464.837497 415.598744 470.57375 444.72 470.57375 
C 473.841256 470.57375 502.679345 464.837497 529.583878 453.693275 
C 556.488411 442.549053 580.936162 426.213588 601.528 405.62175 
C 622.119838 385.029912 638.455303 360.582161 649.599525 333.677628 
C 660.743747 306.773095 666.48 277.935006 666.48 248.81375 
M 444.72 248.81375 
C 444.72 248.81375 444.72 248.81375 444.72 248.81375 
C 444.72 248.81375 444.72 248.81375 444.72 248.81375 
C 444.72 248.81375 444.72 248.81375 444.72 248.81375 
C 444.72 248.81375 444.72 248.81375 444.72 248.81375 
C 444.72 248.81375 444.72 248.81375 444.72 248.81375 
C 444.72 248.81375 444.72 248.81375 444.72 248.81375 
C 444.72 248.81375 444.72 248.81375 444.72 248.81375 
C 444.72 248.81375 444.72 248.81375 444.72 248.81375 
C 444.72 248.81375 444.72 248.81375 444.72 248.81375 
C 444.72 248.81375 444.72 248.81375 444.72 248.81375 
C 444.72 248.81375 444.72 248.81375 444.72 248.81375 
C 444.72 248.81375 444.72 248.81375 444.72 248.81375 
C 444.72 248.81375 444.72 248.81375 444.72 248.81375 
C 444.72 248.81375 444.72 248.81375 444.72 248.81375 
C 444.72 248.81375 444.72 248.81375 444.72 248.81375 
C 444.72 248.81375 444.72 248.81375 444.72 248.81375 
z
"/>
  </clipPath>
 </defs>
</svg>
